<?xml version="1.0" encoding="UTF-8"?>
<svg width="480px" height="526px" viewBox="0 0 480 526" version="1.1" xmlns="http://www.w3.org/2000/svg" xmlns:xlink="http://www.w3.org/1999/xlink">
    <title>Untitled</title>
    <defs>
        <linearGradient x1="67.4977778%" y1="65.1713257%" x2="32.5022222%" y2="34.8286743%" id="linearGradient-1">
            <stop stop-color="#4E5761" offset="0%"></stop>
            <stop stop-color="#505963" offset="100%"></stop>
        </linearGradient>
        <path d="M21.9633274,0.722330097 L0.897682704,21.9106796 C-0.299227568,23.1145631 -0.299227568,24.8 0.897682704,25.7631068 L5.20655969,30.0970874 C6.40346996,31.3009709 8.07916828,31.3009709 9.0366965,30.0970874 L30.1023173,8.90873786 C31.2992276,7.70485437 31.2992276,6.01941748 30.1023173,5.05631068 L25.7934403,0.722330097 C24.8359121,-0.240776699 22.9208557,-0.240776699 21.9633274,0.722330097 Z" id="path-2"></path>
        <linearGradient x1="79.1482786%" y1="101.231845%" x2="20.9420688%" y2="-0.170097087%" id="linearGradient-4">
            <stop stop-color="#CCCCCC" offset="0%"></stop>
            <stop stop-color="#E6E6E6" offset="100%"></stop>
        </linearGradient>
        <path d="M21.9633274,0.722330097 L0.897682704,21.9106796 C-0.299227568,23.1145631 -0.299227568,24.8 0.897682704,25.7631068 L5.20655969,30.0970874 C6.40346996,31.3009709 8.07916828,31.3009709 9.0366965,30.0970874 L30.1023173,8.90873786 C31.2992276,7.70485437 31.2992276,6.01941748 30.1023173,5.05631068 L25.7934403,0.722330097 C24.8359121,-0.240776699 22.9208557,-0.240776699 21.9633274,0.722330097 Z" id="path-5"></path>
    </defs>
    <g id="Page-1" stroke="none" stroke-width="1" fill="none" fill-rule="evenodd">
        <g id="Group-3" transform="translate(28, 36)">
            <path d="M424,241 C424,123.934301 329.065699,29 212,29 C94.9343007,29 0,123.934301 0,241 C0,358.065699 94.9343007,453 212,453 C329.065699,453 424,358.065699 424,241 Z" id="Path" fill="#B998DA" fill-rule="nonzero"></path>
            <circle id="Oval" fill="#344B80" fill-rule="nonzero" cx="216" cy="199" r="134"></circle>
            <path d="M216,65 C290.005751,65 350,124.993359 350,199 C350,273.005751 290.005751,333 216,333" id="Path" fill="#3C5A9A" fill-rule="nonzero"></path>
            <path d="M253.090828,349 C293.849075,349 329.279689,371.400584 347.316483,404.350181 C310.461095,435.336228 262.906028,454 211,454 C160.390454,454 113.917231,436.256932 77.462764,406.653231 C95.0881133,372.446045 131.210894,349 172.909172,349 Z" id="Combined-Shape" fill="#E4F1FB" fill-rule="nonzero"></path>
            <path d="M251.635955,349 C292.99048,349 328.933985,371.44574 347.199079,404.449795 C310.359355,435.376134 262.850506,454 211,454 L211,349 Z" id="Combined-Shape" fill="#C9E3F7" fill-rule="nonzero"></path>
            <path d="M261.972467,348.558449 C261.972467,374.207656 241.166282,395 215.5,395 L215.5,395 C189.833718,395 169.027533,374.207656 169.027533,348.558449 L169.027533,325.337674 C169.027533,299.688467 189.833718,278.896123 215.5,278.896123 L215.5,278.896123 C241.166282,278.896123 261.972467,299.688467 261.972467,325.337674 L261.972467,348.558449 Z" id="Path" fill="#FFD6A0" fill-rule="nonzero"></path>
            <circle id="Oval" fill="#FFBD86" fill-rule="nonzero" cx="94" cy="241" r="27"></circle>
            <circle id="Oval" fill="#FFBD86" fill-rule="nonzero" cx="333" cy="241" r="27"></circle>
            <path d="M335,235.420501 C335,301.374976 281.49838,354.841003 215.5,354.841003 L215.5,354.841003 C149.50162,354.841003 96,301.373213 96,235.420501 L96,235.420501 C96,169.466027 149.50162,116 215.5,116 L215.5,116 C281.49838,116 335,169.466027 335,235.420501 L335,235.420501 Z" id="Path-4" fill="#FED2A4" fill-rule="nonzero"></path>
            <path d="M107,131.221369 C131.303285,163.858405 170.181612,185 214,185 C257.818388,185 296.695827,163.860182 321,131.221369 L214,105 L107,131.221369 Z" id="Path" fill="#344B80" fill-rule="nonzero"></path>
            <path d="M216,185 C258.998481,185 297.150111,163.860182 321,131.221369 L216,105 C216,105 216,141.953823 216,185 Z" id="Path" fill="#3C5A9A" fill-rule="nonzero"></path>
            <path d="M216,0 C122.199644,0 82,53.599822 82,53.599822 L122.199644,134 L216,134 L309.800356,134 L350,53.599822 C350,53.599822 309.800356,0 216,0 Z" id="Path" fill="#E4F1FB" fill-rule="nonzero"></path>
            <path d="M309.800356,134 L350,53.599822 C350,53.599822 309.800356,0 216,0 L216,134 L309.800356,134 Z" id="Path" fill="#C9E3F7" fill-rule="nonzero"></path>
            <polygon id="Path" fill="#8E88D5" fill-rule="nonzero" points="243 54.2000598 226.800359 54.2000598 226.800359 38 205.199641 38 205.199641 54.2000598 189 54.2000598 189 75.7999402 205.199641 75.7999402 205.199641 92 226.800359 92 226.800359 75.7999402 243 75.7999402"></polygon>
            <polygon id="Path" fill="#344B80" fill-rule="nonzero" points="111 239 82 239 82 199.999482 96.5004815 174 111 225.999827"></polygon>
            <polygon id="Path" fill="#3C5A9A" fill-rule="nonzero" points="321 239 350 239 350 199.999482 335.499519 174 321 225.999827"></polygon>
            <path d="M237,291 C227.56858,293.266667 220.235247,294.4 215,294.4 C209.56858,294.4 202.235247,293.266667 193,291 C191.2,291 190,292.36 190,294.4 L190,302.6 C190,304.64 191.2,306 193,306 C202.320174,308.429859 209.653508,309.644788 215,309.644788 C220.320174,309.644788 227.653508,308.429859 237,306 C238.8,306 240,304.64 240,302.6 L240,294.4 C240,292.36 238.8,291 237,291 Z" id="Path" fill="url(#linearGradient-1)" fill-rule="nonzero"></path>
            <g id="Group-2" transform="translate(264.5, 248) rotate(-184) translate(-264.5, -248)translate(249, 224)">
                <g id="Clipped" transform="translate(15.5, 32.5) scale(-1, 1) translate(-15.5, -32.5)translate(0, 17)">
                    <mask id="mask-3" fill="white">
                        <use xlink:href="#path-2"></use>
                    </mask>
                    <g id="Path"></g>
                    <path d="M9.0366965,-16.1320388 L30.1023173,5.05631068 C31.2992276,6.26019417 31.2992276,7.94563107 30.1023173,8.90873786 L25.7934403,13.2427184 C24.59653,14.4466019 22.9208557,14.4466019 21.9633274,13.2427184 L0.897682704,-7.94563107 C-0.299227568,-9.14951456 -0.299227568,-10.8349515 0.897682704,-11.7980583 L5.20655969,-16.1320388 C6.1640879,-17.0951456 8.07916828,-17.0951456 9.0366965,-16.1320388 Z" id="Path" fill="url(#linearGradient-4)" fill-rule="nonzero" mask="url(#mask-3)"></path>
                </g>
                <path d="M21.9633035,0.724528302 C22.9208317,-0.241509434 24.8359121,-0.241509434 25.7934403,0.724528302 L30.1023173,5.07169811 C31.2992276,6.03773585 31.2992276,7.72830189 30.1023173,8.93584906 L15.26,23.909 L30.1023173,38.8830189 C31.2992276,40.090566 31.2992276,41.7811321 30.1023173,42.7471698 L25.7934403,47.0943396 C24.59653,48.3018868 22.9208317,48.3018868 21.9633035,47.0943396 L0.897682704,25.8415094 L0.764889405,25.7268969 C0.231060341,25.2340679 -0.0233425722,24.5829359 0.0016806652,23.909712 C-0.025454141,23.182623 0.27320778,22.4813782 0.897682704,21.9773585 L5.20655969,17.6301887 Z" id="Path-2" fill="#435360" fill-rule="nonzero"></path>
            </g>
            <g id="Group-2" transform="translate(165.5, 249) rotate(-184) translate(-165.5, -249)translate(150, 225)">
                <g id="Clipped" transform="translate(15.5, 32.5) scale(-1, 1) translate(-15.5, -32.5)translate(0, 17)">
                    <mask id="mask-6" fill="white">
                        <use xlink:href="#path-5"></use>
                    </mask>
                    <g id="Path"></g>
                    <path d="M9.0366965,-16.1320388 L30.1023173,5.05631068 C31.2992276,6.26019417 31.2992276,7.94563107 30.1023173,8.90873786 L25.7934403,13.2427184 C24.59653,14.4466019 22.9208557,14.4466019 21.9633274,13.2427184 L0.897682704,-7.94563107 C-0.299227568,-9.14951456 -0.299227568,-10.8349515 0.897682704,-11.7980583 L5.20655969,-16.1320388 C6.1640879,-17.0951456 8.07916828,-17.0951456 9.0366965,-16.1320388 Z" id="Path" fill="url(#linearGradient-4)" fill-rule="nonzero" mask="url(#mask-6)"></path>
                </g>
                <path d="M21.9633035,0.724528302 C22.9208317,-0.241509434 24.8359121,-0.241509434 25.7934403,0.724528302 L30.1023173,5.07169811 C31.2992276,6.03773585 31.2992276,7.72830189 30.1023173,8.93584906 L15.26,23.909 L30.1023173,38.8830189 C31.2992276,40.090566 31.2992276,41.7811321 30.1023173,42.7471698 L25.7934403,47.0943396 C24.59653,48.3018868 22.9208317,48.3018868 21.9633035,47.0943396 L0.897682704,25.8415094 L0.764889405,25.7268969 C0.231060341,25.2340679 -0.0233425722,24.5829359 0.0016806652,23.909712 C-0.025454141,23.182623 0.27320778,22.4813782 0.897682704,21.9773585 L5.20655969,17.6301887 Z" id="Path-2" fill="#435360" fill-rule="nonzero"></path>
            </g>
        </g>
    </g>
</svg>